<?xml version="1.0" encoding="UTF-8" standalone="no"?>
<svg
   xmlns:dc="http://purl.org/dc/elements/1.1/"
   xmlns:cc="http://creativecommons.org/ns#"
   xmlns:rdf="http://www.w3.org/1999/02/22-rdf-syntax-ns#"
   xmlns:svg="http://www.w3.org/2000/svg"
   xmlns="http://www.w3.org/2000/svg"
   xmlns:sodipodi="http://sodipodi.sourceforge.net/DTD/sodipodi-0.dtd"
   xmlns:inkscape="http://www.inkscape.org/namespaces/inkscape"
   version="1.0"
   width="294pt"
   height="294pt"
   viewBox="0 0 294 294"
   preserveAspectRatio="xMidYMid meet"
   id="svg2"
   inkscape:version="0.91 r13725"
   sodipodi:docname="icon.svg">
  <metadata
     id="metadata26">
    <rdf:RDF>
      <cc:Work
         rdf:about="">
        <dc:format>image/svg+xml</dc:format>
        <dc:type
           rdf:resource="http://purl.org/dc/dcmitype/StillImage" />
        <dc:title></dc:title>
      </cc:Work>
    </rdf:RDF>
  </metadata>
  <defs
     id="defs24" />
  <sodipodi:namedview
     pagecolor="#ffffff"
     bordercolor="#666666"
     borderopacity="1"
     objecttolerance="10"
     gridtolerance="10"
     guidetolerance="10"
     inkscape:pageopacity="0"
     inkscape:pageshadow="2"
     inkscape:window-width="1536"
     inkscape:window-height="801"
     id="namedview22"
     showgrid="false"
     inkscape:zoom="0.56655975"
     inkscape:cx="745.07781"
     inkscape:cy="100.90665"
     inkscape:window-x="-8"
     inkscape:window-y="-8"
     inkscape:window-maximized="1"
     inkscape:current-layer="svg2" />
  <g
     transform="matrix(0.1,0,0,-0.1,0,294)"
     id="g4"
     style="fill:#1c2237;fill-opacity:1;stroke:none">
    <path
       d="M 10,1470 10,0 l 1470,0 1470,0 0,1470 0,1470 -1470,0 -1470,0 0,-1470 z m 556,1208 c 52,-23 94,-45 94,-48 0,-3 -15,-12 -34,-18 -91,-33 -223,-170 -276,-287 -50,-112 -53,-132 -57,-467 -4,-268 -2,-329 12,-400 39,-195 153,-349 319,-433 74,-37 196,-75 243,-75 73,-1 -279,-186 -475,-250 -67,-22 -131,-40 -142,-40 -20,0 -20,12 -20,1030 l 0,1030 121,0 c 120,0 121,0 215,-42 z m 2164,-1208 0,-1250 -325,0 c -179,0 -325,4 -325,8 0,24 30,40 87,46 81,7 175,40 241,83 52,35 162,147 162,166 0,6 6,18 14,26 19,23 63,155 76,225 6,36 10,280 10,618 l 0,559 -25,24 c -24,25 -27,25 -200,25 -173,0 -176,0 -200,-25 -23,-22 -25,-32 -25,-110 l 0,-87 -55,110 c -72,144 -153,253 -285,382 -58,58 -115,119 -125,135 -65,102 -161,182 -270,224 -33,13 -69,27 -80,32 -29,12 -132,29 -184,29 -25,1 -59,7 -76,15 -26,11 84,13 778,14 l 807,1 0,-1250 z M 1354,2600 c 173,-44 295,-135 368,-276 62,-120 68,-162 68,-505 0,-336 -5,-376 -61,-496 -43,-90 -149,-197 -239,-241 -121,-59 -170,-66 -425,-66 -222,0 -233,1 -311,27 -183,61 -306,183 -366,362 -22,68 -23,81 -23,410 0,260 3,352 14,390 41,148 154,287 282,348 112,54 184,65 415,66 169,1 213,-2 278,-19 z M 2600,1373 c 0,-600 -3,-630 -53,-745 -52,-118 -151,-214 -264,-259 -51,-20 -80,-23 -244,-27 -208,-4 -262,3 -357,48 -155,73 -259,240 -278,443 l -7,77 155,0 155,0 6,-59 c 5,-65 36,-143 70,-179 47,-50 73,-57 217,-57 152,0 179,9 225,75 61,88 60,74 63,683 l 3,557 154,0 155,0 0,-557 z"
       id="path6"
       style="fill:#1c2237;fill-opacity:1"
       inkscape:connector-curvature="0" />
    <path
       d="m 909,2341 c -124,-23 -202,-107 -229,-246 -7,-40 -10,-146 -8,-310 4,-288 12,-324 85,-405 69,-76 102,-85 328,-85 162,0 195,3 225,18 54,27 110,86 139,147 l 26,55 0,305 c 0,291 -1,307 -21,350 -31,65 -87,125 -141,151 -41,20 -64,23 -202,25 -86,2 -177,-1 -202,-5 z m 314,-110 c 63,-67 133,-177 162,-256 22,-57 25,-82 25,-191 0,-148 -9,-189 -65,-311 -42,-89 -45,-92 -86,-103 -26,-7 -104,-10 -209,-8 l -167,3 -39,30 c -98,74 -107,112 -102,450 3,255 4,262 28,309 30,59 86,107 137,116 21,4 90,8 154,9 l 116,1 46,-49 z"
       id="path8"
       style="fill:#1c2237;fill-opacity:1"
       inkscape:connector-curvature="0" />
  </g>
</svg>
