<?xml version="1.0" encoding="UTF-8" standalone="no"?>
<svg
   xmlns:dc="http://purl.org/dc/elements/1.1/"
   xmlns:cc="http://creativecommons.org/ns#"
   xmlns:rdf="http://www.w3.org/1999/02/22-rdf-syntax-ns#"
   xmlns:svg="http://www.w3.org/2000/svg"
   xmlns="http://www.w3.org/2000/svg"
   xmlns:sodipodi="http://sodipodi.sourceforge.net/DTD/sodipodi-0.dtd"
   xmlns:inkscape="http://www.inkscape.org/namespaces/inkscape"
   version="1.0"
   width="1294.000000pt"
   height="294.000000pt"
   viewBox="0 0 1294.000000 294.000000"
   preserveAspectRatio="xMidYMid meet"
   id="svg2"
   inkscape:version="0.91 r13725"
   sodipodi:docname="logo.svg">
  <metadata
     id="metadata26">
    <rdf:RDF>
      <cc:Work
         rdf:about="">
        <dc:format>image/svg+xml</dc:format>
        <dc:type
           rdf:resource="http://purl.org/dc/dcmitype/StillImage" />
      </cc:Work>
    </rdf:RDF>
  </metadata>
  <defs
     id="defs24" />
  <sodipodi:namedview
     pagecolor="#ffffff"
     bordercolor="#666666"
     borderopacity="1"
     objecttolerance="10"
     gridtolerance="10"
     guidetolerance="10"
     inkscape:pageopacity="0"
     inkscape:pageshadow="2"
     inkscape:window-width="1536"
     inkscape:window-height="801"
     id="namedview22"
     showgrid="false"
     inkscape:zoom="0.56655975"
     inkscape:cx="565.92636"
     inkscape:cy="222.69433"
     inkscape:window-x="-8"
     inkscape:window-y="-8"
     inkscape:window-maximized="1"
     inkscape:current-layer="svg2" />
  <g
     transform="translate(0.000000,294.000000) scale(0.100000,-0.100000)"
     id="g4"
     style="fill:#1c2237;fill-opacity:1"
     stroke="none"
     fill="#000000">
    <path
       d="M10 1470 l0 -1470 1470 0 1470 0 0 1470 0 1470 -1470 0 -1470 0 0 -1470z m556 1208 c52 -23 94 -45 94 -48 0 -3 -15 -12 -34 -18 -91 -33 -223 -170 -276 -287 -50 -112 -53 -132 -57 -467 -4 -268 -2 -329 12 -400 39 -195 153 -349 319 -433 74 -37 196 -75 243 -75 73 -1 -279 -186 -475 -250 -67 -22 -131 -40 -142 -40 -20 0 -20 12 -20 1030 l0 1030 121 0 c120 0 121 0 215 -42z m2164 -1208 l0 -1250 -325 0 c-179 0 -325 4 -325 8 0 24 30 40 87 46 81 7 175 40 241 83 52 35 162 147 162 166 0 6 6 18 14 26 19 23 63 155 76 225 6 36 10 280 10 618 l0 559 -25 24 c-24 25 -27 25 -200 25 -173 0 -176 0 -200 -25 -23 -22 -25 -32 -25 -110 l0 -87 -55 110 c-72 144 -153 253 -285 382 -58 58 -115 119 -125 135 -65 102 -161 182 -270 224 -33 13 -69 27 -80 32 -29 12 -132 29 -184 29 -25 1 -59 7 -76 15 -26 11 84 13 778 14 l807 1 0 -1250z m-1376 1130 c173 -44 295 -135 368 -276 62 -120 68 -162 68 -505 0 -336 -5 -376 -61 -496 -43 -90 -149 -197 -239 -241 -121 -59 -170 -66 -425 -66 -222 0 -233 1 -311 27 -183 61 -306 183 -366 362 -22 68 -23 81 -23 410 0 260 3 352 14 390 41 148 154 287 282 348 112 54 184 65 415 66 169 1 213 -2 278 -19z m1246 -1227 c0 -600 -3 -630 -53 -745 -52 -118 -151 -214 -264 -259 -51 -20 -80 -23 -244 -27 -208 -4 -262 3 -357 48 -155 73 -259 240 -278 443 l-7 77 155 0 155 0 6 -59 c5 -65 36 -143 70 -179 47 -50 73 -57 217 -57 152 0 179 9 225 75 61 88 60 74 63 683 l3 557 154 0 155 0 0 -557z"
       id="path6"
       style="fill:#1c2237;fill-opacity:1" />
    <path
       d="M909 2341 c-124 -23 -202 -107 -229 -246 -7 -40 -10 -146 -8 -310 4 -288 12 -324 85 -405 69 -76 102 -85 328 -85 162 0 195 3 225 18 54 27 110 86 139 147 l26 55 0 305 c0 291 -1 307 -21 350 -31 65 -87 125 -141 151 -41 20 -64 23 -202 25 -86 2 -177 -1 -202 -5z m314 -110 c63 -67 133 -177 162 -256 22 -57 25 -82 25 -191 0 -148 -9 -189 -65 -311 -42 -89 -45 -92 -86 -103 -26 -7 -104 -10 -209 -8 l-167 3 -39 30 c-98 74 -107 112 -102 450 3 255 4 262 28 309 30 59 86 107 137 116 21 4 90 8 154 9 l116 1 46 -49z"
       id="path8"
       style="fill:#1c2237;fill-opacity:1" />
    <path
       d="M10505 2311 c-236 -38 -413 -181 -491 -396 -35 -97 -48 -259 -41 -545 4 -204 9 -258 26 -324 29 -108 81 -198 161 -276 129 -126 248 -168 505 -177 356 -12 531 37 681 193 98 102 149 228 165 408 15 158 5 568 -15 651 -55 225 -215 389 -441 451 -67 19 -460 29 -550 15z m501 -318 c47 -25 105 -86 132 -140 38 -75 44 -135 40 -428 -3 -267 -5 -283 -27 -339 -27 -68 -93 -140 -156 -171 -36 -18 -61 -20 -250 -20 -204 0 -211 1 -258 25 -55 27 -107 80 -135 137 -38 75 -44 135 -40 428 4 338 8 356 103 451 41 42 73 64 100 72 24 6 122 10 245 9 189 -2 208 -4 246 -24z"
       id="path10"
       style="fill:#1c2237;fill-opacity:1" />
    <path
       d="M3360 1543 c0 -849 -3 -803 73 -870 65 -57 72 -58 537 -58 375 0 433 2 490 18 191 52 308 167 341 335 19 100 7 267 -24 335 -33 71 -92 136 -159 172 -29 15 -54 29 -56 31 -2 1 15 21 37 43 22 22 53 64 68 93 27 51 28 58 28 208 0 138 -2 160 -22 202 -46 100 -155 184 -293 225 -47 14 -128 17 -537 20 l-483 5 0 -759z m929 442 c57 -33 75 -67 79 -146 8 -127 -34 -203 -125 -228 -22 -6 -147 -11 -295 -11 l-258 0 0 206 0 205 283 -3 c261 -3 285 -4 316 -23z m101 -681 c65 -38 80 -73 80 -188 0 -200 -38 -216 -502 -216 l-278 0 0 216 0 215 333 -3 c314 -3 334 -4 367 -24z"
       id="path12"
       style="fill:#1c2237;fill-opacity:1" />
    <path
       d="M5020 1455 l0 -845 165 0 165 0 0 270 0 271 83 84 82 85 269 -346 c148 -189 275 -349 282 -354 7 -7 88 -9 208 -8 l197 3 -365 470 c-201 259 -365 473 -363 477 1 4 154 170 340 367 185 198 337 362 337 365 0 3 -90 6 -200 6 l-200 0 -332 -361 -333 -361 -3 361 -2 361 -165 0 -165 0 0 -845z"
       id="path14"
       style="fill:#1c2237;fill-opacity:1" />
    <path
       d="M6610 1543 c0 -716 1 -760 19 -798 23 -49 63 -88 116 -112 35 -15 78 -18 330 -21 446 -5 596 14 731 93 102 60 188 181 227 320 18 61 21 109 25 390 4 368 -4 452 -59 564 -45 93 -153 198 -250 244 -146 70 -143 70 -666 74 l-473 5 0 -759z m946 430 c61 -33 99 -68 131 -121 l28 -47 0 -340 c0 -327 -1 -342 -22 -386 -31 -67 -76 -113 -135 -140 -51 -23 -63 -24 -335 -27 l-283 -3 0 546 0 546 288 -3 c274 -3 289 -4 328 -25z"
       id="path16"
       style="fill:#1c2237;fill-opacity:1" />
    <path
       d="M8300 1455 l0 -845 160 0 160 0 2 572 3 572 404 -572 403 -573 147 3 146 3 3 843 2 842 -165 0 -165 0 0 -571 0 -571 -402 570 -403 571 -147 1 -148 0 0 -845z"
       id="path18"
       style="fill:#1c2237;fill-opacity:1" />
    <path
       d="M12610 1758 c0 -304 -5 -574 -10 -613 -14 -97 -60 -188 -113 -223 -38 -25 -49 -27 -167 -30 -159 -5 -201 6 -256 63 -46 47 -70 107 -80 198 l-7 57 -161 -2 -161 -3 3 -65 c9 -203 126 -406 277 -483 107 -54 154 -62 370 -61 190 0 204 2 272 26 40 15 92 40 116 57 65 44 142 133 177 204 65 133 64 111 67 795 l4 622 -166 0 -165 0 0 -542z"
       id="path20"
       style="fill:#1c2237;fill-opacity:1" />
  </g>
</svg>
