<?xml version="1.0" standalone="no"?>
<!DOCTYPE svg PUBLIC "-//W3C//DTD SVG 20010904//EN"
 "http://www.w3.org/TR/2001/REC-SVG-20010904/DTD/svg10.dtd">
<svg version="1.0" xmlns="http://www.w3.org/2000/svg"
 width="294.000000pt" height="294.000000pt" viewBox="0 0 294.000000 294.000000"
 preserveAspectRatio="xMidYMid meet">
<metadata>
Created by potrace 1.14, written by Peter Selinger 2001-2017
</metadata>
<g transform="translate(0.000000,294.000000) scale(0.100000,-0.100000)"
fill="#000000" stroke="none">
<path d="M0 1470 l0 -1470 1470 0 1470 0 0 1470 0 1470 -1470 0 -1470 0 0
-1470z m547 1211 c48 -22 89 -44 91 -50 2 -5 -7 -12 -20 -16 -36 -11 -150 -99
-183 -142 -80 -102 -117 -177 -140 -288 -11 -57 -15 -144 -15 -371 0 -344 11
-415 80 -540 95 -172 242 -276 450 -318 l65 -13 -65 -42 c-148 -94 -425 -213
-552 -236 l-38 -7 0 1031 0 1031 120 0 c118 0 121 -1 207 -39z m2173 -1211 l0
-1250 -325 0 c-179 0 -325 4 -325 8 0 25 30 40 92 45 109 10 211 55 295 132
39 36 84 86 100 113 39 62 80 173 93 246 6 36 10 285 10 623 l0 564 -25 24
c-24 25 -27 25 -200 25 -173 0 -176 0 -200 -25 -23 -22 -25 -32 -25 -110 l0
-87 -56 112 c-70 139 -180 286 -290 387 -46 43 -94 94 -106 113 -41 66 -110
139 -166 177 -109 73 -261 123 -372 123 -26 0 -63 7 -81 15 -30 13 56 14 774
15 l807 0 0 -1250z m-1320 1114 c149 -52 252 -140 317 -267 55 -109 56 -119
60 -467 4 -281 2 -334 -12 -395 -53 -215 -197 -362 -415 -421 -94 -26 -475
-26 -570 -1 -192 51 -323 168 -393 349 l-32 83 0 345 c0 264 3 357 14 395 41
147 152 284 283 347 119 59 180 68 438 65 222 -3 226 -3 310 -33z m1188 -1241
l-3 -588 -27 -74 c-63 -172 -179 -285 -333 -326 -83 -21 -374 -21 -458 1 -213
55 -351 232 -373 479 l-7 76 154 -3 154 -3 7 -60 c8 -71 27 -121 64 -164 49
-58 74 -66 224 -66 124 0 138 2 173 23 20 13 49 44 64 69 50 87 53 116 53 691
l0 532 155 0 156 0 -3 -587z"/>
<path d="M899 2340 c-99 -18 -160 -68 -208 -170 l-26 -55 0 -290 c0 -332 5
-359 83 -446 68 -75 101 -84 327 -84 168 0 195 2 229 19 56 28 104 80 135 145
l26 56 0 305 0 305 -28 57 c-31 62 -90 122 -146 146 -41 18 -314 27 -392 12z
m314 -109 c55 -59 124 -165 157 -241 21 -47 25 -75 28 -192 3 -106 0 -149 -13
-195 -24 -85 -83 -207 -108 -223 -25 -16 -272 -27 -362 -15 -47 5 -62 13 -105
53 -75 71 -82 109 -78 430 3 252 4 259 28 306 32 62 83 104 141 115 24 5 94 9
155 10 l111 1 46 -49z"/>
</g>
</svg>
